<?xml version="1.0" encoding="UTF-8"?>
<!DOCTYPE svg  PUBLIC '-//W3C//DTD SVG 1.1//EN'  'http://www.w3.org/Graphics/SVG/1.1/DTD/svg11.dtd'>
<svg enable-background="new 0 0 2734.157 1461.805" version="1.1" viewBox="0 0 2734.157 1461.805" xml:space="preserve" xmlns="http://www.w3.org/2000/svg">
	<path d="m104.24 328.46c68.718-8.854 135.2-7.34 198.61 8.447 10.919 2.719 21.669-6.44 20.407-17.622-3.283-29.081-16.364-56.21-38.46-81.542-9.796-11.23-13.538-27.397-8.116-41.278 6.534-16.725 23.386-20.892 50.703-12.322 8.072 2.533 15.42 7.274 20.914 13.706l14.452 16.919c14.591 17.082 36.802 25.608 59.045 22.461 40.732-5.763 83.827-7.51 129-5.719 16.995 0.674 34.1-2.955 48.329-12.274 148.43-97.21 311.02-77.581 487.74 58.785 12.935 9.981 17.663 27.934 10.795 42.758-7.203 15.546-18.582 28.744-33.859 39.749-13.205 9.512-31.472 9.314-43.848-1.255-33.2-28.354-70.715-52.25-112.52-71.717-21.292-9.917-44.639-14.841-68.122-14.38-157.18 3.082-313.09 78.421-468.79 166.34-6.967 3.934-14.755 6.556-22.722 7.293-108.37 10.02-187.75-26.133-253.78-83.563-12.949-11.262-6.814-32.591 10.208-34.784z"/>
	<path d="m1692.2 263.58c-95.584 56.18-136.27-23.137-69.304-69.303 62.416-53.949 159.49-75.689 274.86-80.432 40.757-1.676 81.566 2.235 121.47 10.702 73.417 15.578 149.91 24.867 230.6 25.618 51.21 0.477 102.32-13.746 143.89-43.66 15.232-10.962 28.317-22.981 39.028-36.17 14.177-17.457 37.17-26.742 59.334-22.936 26.04 4.472 35.079 23.784 16.702 67.028-25.222 22.536-42.713 50.494-53.47 83.172-5.896 17.911 4.429 37.093 22.756 41.531 52.955 12.822 104.18 14.88 153.77 6.848 9.252-1.498 17.577 6.819 14.72 15.745-10.444 32.625-39.405 53.676-79.693 67.647-39.309 13.631-81.553 16.793-122.94 12.533-75.496-7.771-143.05-30.349-203.42-66.298-31.706-18.878-66.452-31.816-102.91-37.543-76.168-11.967-177.33-16.515-286.8-18.599-48.488-0.923-96.382 10.794-139.13 33.695l-19.455 10.422z"/>
	<path d="m1581.4 839.09c-0.091 40.251-88.131 27.949-202.82 27.886-114.69 0.062-202.73 12.365-202.82-27.886 0.091-40.251 88.131-117.75 202.82-117.88 114.69 0.129 202.73 77.625 202.82 117.88z"/>
	<path d="m626.01 1138.1c114.84-53.369 182.45-139.38 216.25-248.75 0.879-2.846 2.035-5.761 3.432-8.392 21.535-40.536 43.37-53.961 65.515-39.103 15.451 10.367 21.519 30.037 18.352 48.372-10.422 60.335-12.769 119.26-8.027 176.94 3.943 47.962 27.316 92.012 64.377 122.71 83.876 69.478 189.95 108.6 314.45 122.53 13.27 1.484 26.818 1.505 40.106 0.199 210.28-20.662 394.97-91.647 550.3-220.38 21.755-18.03 36.109-43.89 38.31-72.06 4.42-56.575-1.249-111.14-18.636-163.36-6.685-20.081 1.063-42.908 19.591-53.137 0.401-0.221 0.802-0.437 1.206-0.647 23.288-12.136 52.447 1.248 60.996 26.078 22.817 66.268 64.518 125.72 118.81 180.61 14.414 14.574 33.135 24.413 53.415 27.395 35.021 5.149 67.715 6.939 96.24 2.715 19.672-2.913 37.704 11.324 38.617 31.189 0.086 1.863 0.127 3.706 0.124 5.53-0.089 46.753-43.649 82.691-90.005 76.617-32.519-4.261-66.104-12.415-100.33-22.91-63.504-25.838-132-0.49-202.26 42.938l-348.52 195.62c-47.429 26.622-100.42 42.24-154.73 45.027-239.21 12.275-428.39-55.275-560.03-214.66l-172.83 54.076c-7.53 2.356-15.386 3.889-23.275 3.949-50.54 0.386-73.88-17.356-70.85-52.671 2.511-29.258 22.769-54.045 49.398-66.42z"/>
</svg>
